<svg version="1.1" id="Layer_1" xmlns="http://www.w3.org/2000/svg" xmlns:xlink="http://www.w3.org/1999/xlink" x="0px" y="0px"
	 width="100%" viewBox="0 0 1600 800" enable-background="new 0 0 1600 800" xml:space="preserve">
<path fill="#FDFEFE" opacity="1.000000" stroke="none" 
	d="
M1102.000000,801.000000 
	C734.666687,801.000000 367.833344,801.000000 1.000000,801.000000 
	C1.000000,534.333313 1.000000,267.666656 1.000000,1.000000 
	C534.333313,1.000000 1067.666626,1.000000 1601.000000,1.000000 
	C1601.000000,267.666656 1601.000000,534.333313 1601.000000,801.000000 
	C1434.833374,801.000000 1268.666626,801.000000 1102.000000,801.000000 
M1288.598145,388.771179 
	C1289.793701,387.569824 1290.989136,386.368500 1292.087036,385.078613 
	C1292.087036,385.078613 1292.108154,385.208801 1292.864868,385.103271 
	C1297.539062,383.662323 1302.213135,382.221405 1307.712036,380.956146 
	C1308.831787,380.909149 1309.951660,380.862152 1311.754028,381.144867 
	C1314.847412,381.634674 1317.940918,382.124451 1321.752075,382.727905 
	C1321.752075,373.756348 1321.863037,365.160797 1321.586670,356.577728 
	C1321.557739,355.683838 1319.338013,354.393463 1317.955933,354.082336 
	C1303.976685,350.935974 1291.120117,356.658447 1283.902710,369.042938 
	C1283.296875,370.082306 1282.577881,371.055542 1281.911377,372.059509 
	C1281.499512,371.987610 1281.087524,371.915710 1280.675537,371.843781 
	C1280.675537,366.690430 1280.675537,361.537079 1280.675537,356.643677 
	C1270.583374,356.643677 1261.363037,356.643677 1252.111450,356.643677 
	C1252.111450,391.959595 1252.111450,426.830872 1252.111450,461.660095 
	C1261.940552,461.660095 1271.369873,461.660095 1280.706909,461.660095 
	C1281.322266,440.588470 1281.928589,419.828735 1282.880005,398.347656 
	C1282.891846,398.081360 1282.903809,397.815063 1283.382568,397.154266 
	C1284.925171,394.435394 1286.467651,391.716522 1287.999023,388.999146 
	C1287.999023,388.999146 1287.997925,389.011536 1288.598145,388.771179 
M460.289215,329.259918 
	C460.289215,329.259918 460.409943,329.327240 461.025360,328.987152 
	C461.533173,326.005615 462.040955,323.024048 462.780334,319.383209 
	C462.791229,318.919861 462.802124,318.456543 463.158264,317.280182 
	C466.316467,289.333252 469.438202,261.382080 472.673950,233.444122 
	C473.137878,229.438461 472.406860,227.806396 467.906311,229.023331 
	C457.309662,231.888733 446.624786,234.429306 435.968109,237.071045 
	C412.554108,242.875275 389.118011,248.592438 365.748535,254.570389 
	C363.646637,255.108078 361.963318,257.282074 360.085602,258.696136 
	C361.683105,260.121277 363.072174,261.947083 364.912933,262.904510 
	C374.620026,267.953583 384.441040,272.783691 394.823883,277.991364 
	C393.036743,279.900360 391.860809,281.234253 390.604187,282.487305 
	C364.440491,308.576324 338.261993,334.650452 312.106873,360.748047 
	C309.886993,362.963013 307.811096,365.322327 305.788330,367.762726 
	C305.788330,367.762726 305.622742,367.668274 305.139740,367.818542 
	C304.989471,368.108429 304.839172,368.398315 304.977264,368.998138 
	C304.977264,368.998138 304.700928,368.677856 304.063965,368.899597 
	C288.956177,383.643097 273.848358,398.386627 258.740570,413.130157 
	C259.007629,413.653961 259.274719,414.177765 259.541779,414.701569 
	C261.639221,414.701569 263.736664,414.702423 265.834106,414.701447 
	C282.467682,414.693665 299.102325,414.576904 315.734100,414.746460 
	C320.461060,414.794647 323.956635,413.120789 327.146759,409.777496 
	C332.999878,403.643402 339.124969,397.769653 345.099762,391.750702 
	C353.868805,382.916870 362.605438,374.050873 371.726135,365.034302 
	C371.726135,365.034302 371.934631,364.687012 372.512115,364.570038 
	C373.128296,363.828369 373.744507,363.086700 374.200195,361.968536 
	C374.200195,361.968536 374.382111,362.336761 375.019409,362.141205 
	C378.823273,358.257629 382.627136,354.374054 386.450134,350.397858 
	C386.450134,350.397858 386.542267,350.376617 386.952881,350.255493 
	C387.217163,350.092651 387.361328,349.856476 387.418701,349.454193 
	C387.418701,349.454193 387.515381,349.434814 388.132568,349.214478 
	C391.595459,345.856934 395.099121,342.540283 398.512848,339.133484 
	C405.924469,331.736877 413.290131,324.294220 420.860199,316.855652 
	C420.860199,316.855652 420.870117,316.669708 421.517120,316.423431 
	C423.065582,315.053314 424.614044,313.683167 427.093872,311.488953 
	C427.441925,314.291443 427.822906,315.957825 427.828247,317.625397 
	C427.868164,330.057098 427.727875,342.490479 427.902405,354.919708 
	C427.942352,357.764709 425.939056,362.275299 430.182159,362.878845 
	C432.060059,363.145966 434.557098,359.060638 437.090027,356.718719 
	C437.090027,356.718719 437.212402,356.345245 437.846619,356.112946 
	C442.708405,350.226379 447.570190,344.339844 452.419952,338.367828 
	C452.419952,338.367828 452.506165,338.371613 453.073639,338.073212 
	C455.172760,335.503937 457.271881,332.934662 459.117157,330.070190 
	C459.117157,330.070190 459.399506,330.338196 459.877716,330.211395 
	C460.190216,330.023926 460.347931,329.748016 460.289215,329.259918 
M1171.890381,296.610107 
	C1171.677246,296.331573 1171.464111,296.053040 1170.523315,295.317657 
	C1161.418701,295.340363 1152.314087,295.363068 1142.591919,295.449280 
	C1142.553345,296.000427 1142.514893,296.551605 1142.437866,298.024689 
	C1142.390015,318.995911 1142.301392,339.967133 1142.303711,360.938354 
	C1142.307617,394.223755 1142.372070,427.509186 1142.340454,461.436493 
	C1142.908691,461.587341 1143.477051,461.738159 1144.679199,461.926666 
	C1145.101807,461.903320 1145.524536,461.879974 1146.863281,462.106903 
	C1149.650146,462.105225 1152.440186,462.189484 1155.223022,462.083496 
	C1160.537109,461.881195 1165.846924,461.570465 1171.555176,460.531799 
	C1171.578979,406.057648 1171.602783,351.583496 1171.890381,296.610107 
M262.198212,493.438507 
	C234.422455,480.361816 219.248611,458.775696 219.102997,427.797729 
	C218.843018,372.483307 219.037506,317.166748 219.041962,261.851105 
	C219.042099,260.072876 219.041977,258.294678 219.041977,256.319092 
	C200.736954,256.319092 183.009918,256.319092 165.002411,256.319092 
	C164.915497,258.056763 164.778702,259.514801 164.778885,260.972870 
	C164.785980,316.455048 164.738220,371.937317 164.840759,427.419342 
	C164.967728,496.108185 217.310135,550.511780 285.818604,553.310242 
	C354.637177,556.121277 413.921143,499.366241 414.054626,430.508026 
	C414.102722,405.682922 414.072113,380.857727 414.051941,356.032562 
	C414.050598,354.357117 413.834290,352.681854 413.664612,350.238312 
	C411.958527,351.386444 411.063965,351.809052 410.397003,352.463562 
	C395.178833,367.397247 380.049774,382.422546 364.739014,397.260406 
	C361.231995,400.659210 359.899231,404.350739 359.846710,409.200104 
	C359.726135,420.331818 360.333618,431.694885 358.347198,442.543182 
	C350.868195,483.387878 306.073639,511.338959 262.198212,493.438507 
M633.209045,401.427032 
	C633.365112,413.099213 630.740234,423.882996 620.938293,431.169983 
	C608.143250,440.682098 593.949768,441.152649 579.789185,434.726807 
	C566.411926,428.656464 562.294556,416.720551 562.235535,403.050262 
	C562.106018,373.067993 562.177490,343.084869 562.167053,313.102081 
	C562.166443,311.350067 562.166992,309.598083 562.166992,307.718018 
	C552.066040,307.718018 542.640137,307.718018 533.317871,307.718018 
	C533.081116,308.275848 532.842346,308.575562 532.842590,308.875061 
	C532.870239,343.186096 531.958069,377.534668 533.301025,411.794800 
	C534.177490,434.155914 546.649475,450.389618 567.533997,459.419342 
	C579.569458,464.622986 592.213196,465.830902 605.210388,464.961426 
	C638.803589,462.714081 662.261597,437.864471 662.309570,404.198212 
	C662.352783,373.882446 662.335327,343.566589 662.344482,313.250793 
	C662.345032,311.462036 662.344543,309.673279 662.344543,307.753967 
	C652.430054,307.753967 643.042236,307.753967 633.217285,307.753967 
	C633.217285,338.877686 633.217285,369.661652 633.209045,401.427032 
M930.421265,423.884247 
	C932.160828,409.455902 928.676270,396.778290 917.827637,386.619354 
	C909.585388,378.901031 899.387329,374.884552 888.915771,371.311340 
	C878.364807,367.711060 867.797302,364.113495 857.447693,359.986389 
	C851.667236,357.681305 848.134460,353.049744 848.123962,346.416809 
	C848.113342,339.708710 851.459595,335.158508 857.259277,332.087097 
	C866.180725,327.362457 875.781738,327.023438 884.988159,329.668732 
	C893.927368,332.237335 902.327393,336.682373 911.543762,340.546356 
	C916.287292,334.400269 921.847839,327.195648 927.369141,320.041809 
	C920.443970,313.234680 910.895264,308.188538 897.119446,304.470734 
	C878.692383,299.497711 860.429932,299.621002 842.992004,308.177826 
	C826.907349,316.070618 817.520935,328.910095 817.123230,347.215057 
	C816.725464,365.528229 825.760742,378.549927 841.928711,386.025238 
	C853.826355,391.526184 866.525757,395.270691 878.742249,400.114868 
	C883.806030,402.122803 889.003723,404.336304 893.327026,407.550507 
	C901.300354,413.478394 901.512939,425.098694 893.902710,431.472168 
	C890.827576,434.047546 886.846558,436.050201 882.953918,437.040863 
	C873.073608,439.555206 862.850952,439.536865 853.433838,435.677582 
	C844.308960,431.938110 835.816650,426.655182 826.461914,421.743134 
	C821.534607,428.496399 815.885254,436.239258 810.279236,443.922760 
	C833.007629,465.656677 879.261536,472.234161 906.357422,457.799744 
	C919.666626,450.709686 928.136963,439.987488 930.421265,423.884247 
M694.503784,356.288727 
	C690.083618,356.288727 685.663513,356.288727 681.411865,356.288727 
	C681.411865,404.325165 681.411865,451.552856 681.411865,498.920563 
	C690.524292,498.920563 699.292908,498.920563 708.702148,498.920563 
	C708.702148,481.841736 708.702148,464.989624 708.702148,446.771179 
	C710.506592,448.755585 711.333435,449.682495 712.178894,450.592072 
	C725.616211,465.048706 746.827454,468.897552 764.886108,460.598755 
	C801.623901,443.716003 805.366394,390.262665 777.051208,366.068695 
	C758.957092,350.608124 734.396973,349.559937 717.513611,363.654602 
	C714.431030,366.228088 711.949829,369.521851 708.471802,373.255035 
	C708.471802,367.111084 708.471802,361.879883 708.471802,356.284973 
	C703.768799,356.284973 699.630798,356.284973 694.503784,356.288727 
M1037.602173,379.112030 
	C1044.553223,371.822845 1051.504272,364.533691 1059.355225,356.300903 
	C1046.765625,356.300903 1035.516479,356.206146 1024.273560,356.429321 
	C1022.972961,356.455139 1021.523071,358.078674 1020.454041,359.246674 
	C1008.757996,372.024994 997.132141,384.867493 985.460632,397.668274 
	C984.302917,398.937897 982.969360,400.047180 980.678589,402.213257 
	C980.678589,365.738708 980.678589,330.716980 980.678589,295.606842 
	C970.493469,295.606842 960.966553,295.606842 951.384155,295.606842 
	C951.384155,351.172974 951.384155,406.261078 951.384155,461.447937 
	C961.218262,461.447937 970.738525,461.447937 980.693909,461.447937 
	C980.693909,456.196075 981.104248,451.345642 980.605225,446.590668 
	C979.670410,437.682373 981.211304,430.186554 989.773499,425.441528 
	C991.124817,424.692657 991.907959,422.918579 993.119202,421.412781 
	C994.801819,422.777740 996.107727,423.517883 996.989136,424.602844 
	C1003.791260,432.975677 1011.176025,440.978790 1017.070618,449.956329 
	C1023.018738,459.015381 1029.817505,463.766144 1041.092285,462.065887 
	C1047.822266,461.050964 1054.830322,461.879761 1063.096558,461.879761 
	C1046.223633,441.562073 1030.337769,422.432861 1014.364746,403.198853 
	C1022.325073,394.941467 1029.715210,387.275452 1037.602173,379.112030 
M1228.583008,411.500000 
	C1228.583008,372.923035 1228.583008,334.346039 1228.583008,295.534729 
	C1218.485962,295.534729 1208.953247,295.534729 1199.347900,295.534729 
	C1199.347900,351.124329 1199.347900,406.309082 1199.347900,461.610413 
	C1209.134644,461.610413 1218.540283,461.610413 1228.580811,461.610413 
	C1228.580811,445.038513 1228.580811,428.769287 1228.583008,411.500000 
M1109.900757,378.500000 
	C1109.900757,371.241180 1109.900757,363.982391 1109.900757,356.641724 
	C1099.769287,356.641724 1090.383667,356.641724 1080.877075,356.641724 
	C1080.877075,391.865326 1080.877075,426.719971 1080.877075,461.402893 
	C1090.750488,461.402893 1100.135254,461.402893 1109.900024,461.402893 
	C1109.900024,433.773438 1109.900024,406.636719 1109.900757,378.500000 
M1432.387329,457.229309 
	C1432.116333,459.675354 1432.411377,461.397278 1435.669312,461.184692 
	C1439.586792,460.929016 1443.533691,461.124237 1447.711914,461.124237 
	C1447.711914,447.039948 1448.105835,433.580444 1447.577515,420.157227 
	C1447.207520,410.756592 1441.392334,404.145599 1432.968994,402.101593 
	C1423.657715,399.842133 1415.573975,401.927246 1409.090454,410.543945 
	C1408.892090,407.476257 1408.749268,405.268799 1408.600830,402.974121 
	C1403.618286,402.974121 1398.868164,402.974121 1394.051392,402.974121 
	C1394.051392,422.453064 1394.051392,441.642303 1394.051392,460.771240 
	C1399.134766,460.771240 1403.870605,460.771240 1408.982422,460.771240 
	C1408.982422,458.436005 1408.982300,456.465912 1408.982422,454.495789 
	C1408.983154,446.174683 1408.734741,437.842377 1409.106567,429.537903 
	C1409.256958,426.181122 1410.149536,422.537262 1411.792114,419.640900 
	C1414.408936,415.026703 1419.175781,414.260925 1424.069702,415.280701 
	C1428.872192,416.281433 1431.764771,419.501312 1431.926758,424.350861 
	C1432.282104,434.987854 1432.260376,445.637451 1432.387329,457.229309 
M1079.964600,334.451782 
	C1081.053345,335.471191 1082.059082,336.601013 1083.244385,337.491821 
	C1090.092896,342.638123 1099.306152,342.802979 1106.562500,337.976410 
	C1112.775879,333.843536 1115.901245,325.985474 1114.181030,318.836700 
	C1112.236816,310.757080 1107.145630,305.668304 1099.083252,304.096039 
	C1091.059814,302.531311 1084.054565,305.077148 1079.445312,311.887878 
	C1074.635986,318.994110 1074.831177,326.561462 1079.964600,334.451782 
M1365.022583,427.500000 
	C1365.022583,438.575165 1365.022583,449.650330 1365.022583,460.826752 
	C1370.462524,460.826752 1375.351562,460.826752 1380.318848,460.826752 
	C1380.318848,441.372192 1380.318848,422.210907 1380.318848,403.167938 
	C1375.026367,403.167938 1370.170898,403.167938 1365.032837,403.167938 
	C1365.032837,411.235199 1365.032837,418.867615 1365.022583,427.500000 
M1333.009155,461.738464 
	C1338.537598,462.335297 1342.870972,460.340271 1345.287720,455.310913 
	C1347.391235,450.933441 1346.920288,446.521606 1343.589722,442.805695 
	C1340.159058,438.978210 1335.834229,437.884796 1330.950195,439.550812 
	C1326.513062,441.064392 1323.596924,445.381714 1323.520630,450.284088 
	C1323.437134,455.642700 1326.091309,459.063873 1333.009155,461.738464 
M719.878540,531.802917 
	C719.213806,531.803467 718.485291,531.625671 717.895630,531.836426 
	C715.706970,532.618835 712.082520,529.778748 711.527039,533.898621 
	C711.417908,534.707703 715.013550,536.016357 717.562439,537.472778 
	C718.566833,540.656311 716.562256,542.434387 712.750244,542.817749 
	C708.577820,543.237366 705.172058,541.921875 703.230469,537.983215 
	C701.305420,534.078003 702.202820,528.123108 705.180115,525.422241 
	C708.417603,522.485291 712.302673,522.198242 715.745789,524.521912 
	C718.819580,526.596252 719.976257,525.498596 721.203247,522.923462 
	C715.190674,517.847595 707.069336,517.413330 701.896545,521.730408 
	C696.789001,525.993042 695.520508,534.693176 699.096436,540.936035 
	C702.513733,546.901978 710.127502,549.082092 717.549500,546.219910 
	C722.751282,544.213928 724.438293,536.514099 719.878540,531.802917 
M806.920410,523.036743 
	C806.920410,530.923035 806.920410,538.809387 806.920410,546.886475 
	C811.292847,546.886475 814.784668,547.048279 818.256409,546.852478 
	C825.313660,546.454529 829.895508,541.821594 830.456543,534.775879 
	C831.111938,526.545044 827.426208,520.815308 820.134094,519.569641 
	C816.570923,518.960876 812.836365,519.112000 809.204773,519.334595 
	C808.388184,519.384644 807.677979,521.169189 806.920410,523.036743 
M737.118835,519.424255 
	C736.697632,528.419189 736.276367,537.414185 735.846252,546.598511 
	C738.223083,546.598511 739.721985,546.598511 741.625305,546.598511 
	C741.625305,543.227722 741.625305,540.299072 741.625305,537.521606 
	C747.745422,535.005920 748.661133,540.113281 750.538391,543.150391 
	C752.404602,546.169556 754.244934,548.069580 758.465088,546.213135 
	C756.273438,542.898987 754.199524,539.762939 752.028687,536.480408 
	C756.691528,533.744690 758.945251,529.946472 757.057922,524.742737 
	C755.182861,519.572937 750.680054,519.027649 745.974426,519.117920 
	C743.316833,519.168884 740.658142,519.164673 737.118835,519.424255 
M843.849426,540.297729 
	C843.849426,542.395935 843.849426,544.494141 843.849426,546.940613 
	C849.857361,546.940613 855.180603,547.119446 860.474426,546.804443 
	C861.673279,546.733093 862.769958,544.946472 863.913696,543.949402 
	C863.571350,543.396362 863.229004,542.843262 862.886719,542.290222 
	C858.315369,542.290222 853.744080,542.290222 849.339966,542.290222 
	C849.339966,539.575562 849.339966,537.457336 849.339966,534.974548 
	C852.605957,534.974548 855.596863,535.162170 858.542175,534.877686 
	C859.644226,534.771301 860.640137,533.565186 861.684448,532.860535 
	C860.686218,532.105774 859.740601,530.801453 858.679932,530.700012 
	C855.607910,530.406372 852.489685,530.596130 849.392090,530.596130 
	C849.392090,527.847900 849.392090,525.804993 849.392090,523.349182 
	C854.192200,523.349182 858.615295,523.349182 864.396179,523.349182 
	C863.006104,521.312744 862.293945,519.282776 861.485718,519.243713 
	C855.741638,518.966187 849.977905,519.095886 844.752747,519.095886 
	C844.161682,520.073975 844.001282,520.215881 843.999939,520.359314 
	C843.938538,526.687927 843.891174,533.016663 843.849426,540.297729 
M634.498657,547.011658 
	C645.873413,548.066650 649.522705,544.831848 649.614258,533.542542 
	C649.642639,530.044678 649.388123,526.537415 649.565430,523.049866 
	C649.743958,519.540466 648.484070,518.426575 644.745117,519.868042 
	C644.745117,525.212769 644.836670,530.687378 644.715149,536.157227 
	C644.623718,540.274963 642.429749,542.699280 638.221436,542.848694 
	C633.937012,543.000854 631.656738,540.630554 631.494568,536.501953 
	C631.298584,531.512329 631.444275,526.509705 631.409912,521.512878 
	C631.405518,520.875305 631.207092,520.239136 631.076050,519.470215 
	C629.551514,519.470215 628.166992,519.470215 626.483521,519.470215 
	C626.483521,525.779602 626.300842,531.754333 626.542603,537.711914 
	C626.729065,542.308044 629.185486,545.505249 634.498657,547.011658 
M919.414368,531.427368 
	C919.418396,528.595093 919.270569,525.752380 919.464600,522.933167 
	C919.710632,519.357056 918.308472,518.416931 914.766785,519.786133 
	C914.766785,525.717651 914.514771,531.704651 914.837769,537.660522 
	C915.159546,543.594421 918.981262,546.938232 924.958801,547.253296 
	C932.229553,547.636475 936.691040,544.917664 937.340210,538.667969 
	C937.972656,532.579468 937.605835,526.386414 937.638855,520.239075 
	C937.640198,519.991882 937.242432,519.742676 936.809570,519.235413 
	C935.749878,519.333984 934.502380,519.450012 932.855225,519.603210 
	C932.855225,525.518494 932.997070,531.166870 932.804688,536.803833 
	C932.679626,540.466797 930.544250,542.649780 926.778198,542.811584 
	C922.957520,542.975708 920.307251,541.359497 919.675415,537.365295 
	C919.417297,535.733521 919.497864,534.048279 919.414368,531.427368 
M1188.672119,547.154175 
	C1195.049683,545.244080 1197.217407,542.704956 1197.437866,536.207275 
	C1197.612427,531.065063 1197.453369,525.910950 1197.397827,520.762512 
	C1197.393066,520.324585 1197.049438,519.890381 1196.843750,519.408752 
	C1195.509766,519.408752 1194.248169,519.408752 1192.575073,519.408752 
	C1192.575073,524.606323 1192.592163,529.554871 1192.570801,534.503357 
	C1192.545654,540.334656 1190.435791,542.929749 1185.810669,542.881348 
	C1181.415405,542.835327 1179.357178,540.334167 1179.283813,534.743835 
	C1179.217407,529.669189 1179.269653,524.593018 1179.269653,519.711731 
	C1175.288086,518.514709 1173.988281,519.634766 1174.194702,523.096558 
	C1174.411865,526.738159 1174.200562,530.403687 1174.237061,534.058105 
	C1174.337524,544.095337 1177.686157,547.321411 1188.672119,547.154175 
M1042.550781,546.692139 
	C1039.048950,541.578918 1035.546997,536.465637 1031.894653,531.132690 
	C1035.189575,527.453430 1038.563843,523.685669 1042.603027,519.175598 
	C1040.277710,519.175598 1038.573975,518.643982 1037.826538,519.264465 
	C1033.856934,522.559082 1030.127319,526.142761 1025.567627,530.308899 
	C1025.290527,526.088928 1025.072266,522.766357 1024.830933,519.091980 
	C1023.002258,519.266663 1021.628418,519.397888 1020.355713,519.519409 
	C1020.355713,528.865845 1020.355713,537.751404 1020.355713,547.016846 
	C1022.158752,546.794922 1023.532654,546.625793 1024.268799,546.535217 
	C1025.191650,542.365845 1025.976807,538.819153 1026.761841,535.272461 
	C1027.329956,535.313538 1027.898193,535.354553 1028.466309,535.395630 
	C1030.604248,538.120972 1032.964478,540.704712 1034.815796,543.612610 
	C1036.558472,546.349976 1038.643799,547.606323 1042.550781,546.692139 
M1386.044556,532.470276 
	C1385.836060,535.763489 1388.254028,535.144714 1390.143188,535.150818 
	C1398.447998,535.177673 1406.752930,535.149353 1415.057739,535.146912 
	C1425.827271,535.143738 1436.596924,535.146179 1447.233032,535.146179 
	C1448.844727,531.164062 1447.145508,530.350525 1443.957031,530.361572 
	C1425.852295,530.424438 1407.746948,530.378723 1389.642334,530.461426 
	C1388.475708,530.466736 1387.312500,531.237610 1386.044556,532.470276 
M1000.338623,519.134521 
	C998.022461,519.079651 995.652100,518.685547 993.402100,519.044983 
	C989.467224,519.673584 986.590271,521.896790 986.148743,526.135010 
	C985.715454,530.294312 988.290588,532.551147 991.835083,533.911804 
	C993.226685,534.445984 994.883118,534.494751 996.082275,535.279175 
	C998.081787,536.587219 1001.560730,538.664429 1001.332031,539.792175 
	C1000.580200,543.498840 996.938721,543.029602 993.950867,542.700928 
	C992.831787,542.577698 991.588928,542.164795 990.715454,541.482971 
	C987.789124,539.198547 986.433350,540.593506 985.293640,543.368530 
	C989.656616,547.331665 994.641296,547.991272 999.909424,546.944275 
	C1003.840271,546.163025 1006.558655,543.831604 1006.891174,539.573792 
	C1007.213745,535.444214 1004.792725,533.072754 1001.211914,531.763184 
	C999.034973,530.967041 996.602173,530.764038 994.559753,529.743408 
	C993.145996,529.036987 992.202332,527.389771 991.048584,526.162842 
	C992.562439,525.120483 994.086731,523.209290 995.587769,523.227417 
	C998.229553,523.259216 1000.857117,524.469910 1003.863586,525.288574 
	C1004.316589,524.618591 1005.023376,523.573242 1005.986755,522.148438 
	C1004.166138,521.123474 1002.609680,520.247253 1000.338623,519.134521 
M793.771057,542.567078 
	C790.988892,535.633667 788.280396,528.668823 785.350098,521.798584 
	C784.877380,520.690247 783.497742,519.434021 782.391418,519.277527 
	C781.226990,519.112854 779.121460,519.865173 778.743591,520.767822 
	C775.192688,529.251038 771.924011,537.852417 768.528381,546.535950 
	C772.041931,547.607544 774.104675,547.168457 774.867249,543.944580 
	C776.118469,538.654480 780.426270,541.220642 783.487671,540.692017 
	C785.975281,540.262573 788.157959,540.710083 788.746582,543.743164 
	C789.434753,547.288940 791.653503,547.707520 794.929932,546.553589 
	C794.616821,545.427612 794.317810,544.352295 793.771057,542.567078 
M952.321777,527.591309 
	C952.321777,533.866821 952.321777,540.142334 952.321777,546.729126 
	C954.122864,546.729126 955.508545,546.729126 957.199768,546.729126 
	C957.354187,543.551758 957.502075,540.508301 957.661926,537.217773 
	C960.634705,537.217773 962.969543,537.393616 965.268799,537.182251 
	C970.540710,536.697815 973.842102,533.359985 973.960327,528.653442 
	C974.086670,523.628601 970.899902,519.768982 965.573730,519.285461 
	C961.351013,518.902100 957.065674,519.208252 952.312683,519.208252 
	C952.312683,522.062561 952.312683,524.344727 952.321777,527.591309 
M1231.678101,522.887817 
	C1226.077637,516.891418 1219.034058,519.799011 1212.201172,519.223694 
	C1212.201172,528.674133 1212.201172,537.572998 1212.201172,546.595154 
	C1213.940063,546.595154 1215.337158,546.595154 1216.871094,546.595154 
	C1217.057373,543.493713 1217.224121,540.717041 1217.365479,538.363098 
	C1221.855713,537.251831 1226.439697,537.064270 1229.924927,535.011414 
	C1234.142456,532.527283 1234.393677,527.937378 1231.678101,522.887817 
M676.664917,537.267883 
	C683.284546,535.999573 685.825378,533.158447 685.428772,527.468140 
	C685.071167,522.337463 681.664368,519.412842 675.505493,519.182922 
	C671.770996,519.043457 668.027039,519.157288 664.329102,519.157288 
	C664.329102,528.862854 664.329102,537.738953 664.329102,546.743958 
	C666.021912,546.743958 667.407532,546.743958 669.156311,546.743958 
	C669.156311,544.958679 669.111084,543.488892 669.169250,542.023193 
	C669.225464,540.605042 669.388245,539.191040 669.541931,537.314575 
	C671.871460,537.314575 673.832397,537.314575 676.664917,537.267883 
M1378.443848,393.086182 
	C1383.355347,388.769226 1384.231812,384.047333 1380.948242,379.593048 
	C1377.996460,375.588898 1372.239990,374.408234 1367.976074,376.932159 
	C1363.832275,379.385010 1362.175903,384.658478 1364.145996,389.126526 
	C1366.231812,393.856750 1371.566895,395.546478 1378.443848,393.086182 
M591.762817,535.017029 
	C592.296265,534.010986 592.829773,533.004944 593.363220,531.998901 
	C592.282837,531.496887 591.204651,530.562683 590.121826,530.557312 
	C572.133728,530.467957 554.144897,530.529053 536.156616,530.467957 
	C532.502075,530.455505 531.799133,531.881470 533.306274,535.051697 
	C552.606689,535.051697 571.756165,535.051697 591.762817,535.017029 
M1297.285400,525.651917 
	C1297.285400,532.711975 1297.285400,539.772095 1297.285400,547.241394 
	C1299.549683,546.977966 1300.937378,546.816528 1302.699463,546.611511 
	C1302.699463,542.954163 1302.699463,539.691711 1302.699463,535.869934 
	C1306.226929,535.869934 1309.358643,536.031311 1312.454224,535.767883 
	C1313.339111,535.692566 1314.119141,534.385864 1314.947266,533.643860 
	C1314.077515,532.937256 1313.252075,531.698120 1312.329956,531.621277 
	C1309.248779,531.364685 1306.132812,531.524048 1302.946533,531.524048 
	C1302.946533,528.511230 1302.946533,526.168335 1302.946533,523.630798 
	C1307.014404,523.630798 1310.659058,523.744812 1314.285767,523.540894 
	C1315.073730,523.496521 1316.527832,522.088623 1316.407959,521.697754 
	C1316.103760,520.707031 1315.107544,519.222412 1314.340332,519.193054 
	C1308.778687,518.980042 1303.205200,519.078613 1297.269653,519.078613 
	C1297.269653,521.438721 1297.269653,523.069214 1297.285400,525.651917 
M1329.308594,519.158691 
	C1328.643066,520.292236 1327.977539,521.425781 1326.953857,523.169434 
	C1330.661133,523.403076 1333.230957,523.565063 1336.425049,523.766357 
	C1336.425049,531.629883 1336.425049,539.150940 1336.425049,546.956238 
	C1338.351318,546.825684 1339.604248,546.740784 1341.297363,546.626038 
	C1341.297363,538.977173 1341.297363,531.580078 1341.297363,523.927856 
	C1344.437134,523.647400 1347.148315,523.405212 1349.859497,523.163025 
	C1350.107178,522.612610 1350.354858,522.062134 1350.602539,521.511658 
	C1349.258789,520.705811 1347.944946,519.270142 1346.566284,519.204895 
	C1341.107788,518.946472 1335.628784,519.117126 1329.308594,519.158691 
M1080.168335,531.546143 
	C1080.168335,527.592957 1080.168335,523.639771 1080.168335,519.440063 
	C1078.361450,519.440063 1076.976929,519.440063 1075.560303,519.440063 
	C1075.560303,528.729370 1075.560303,537.712219 1075.560303,546.938110 
	C1080.825073,546.938110 1085.624756,546.845825 1090.418823,546.971313 
	C1093.499634,547.052002 1094.252930,545.776428 1093.070801,542.472778 
	C1089.005127,542.472778 1084.779907,542.472778 1080.172241,542.472778 
	C1080.172241,538.769958 1080.172241,535.653809 1080.168335,531.546143 
M1118.337646,542.566895 
	C1116.068359,542.566895 1113.799072,542.566895 1111.071045,542.566895 
	C1111.071045,540.328552 1111.076172,538.713928 1111.070190,537.099365 
	C1111.051025,531.952454 1111.131836,526.800903 1110.902710,521.663208 
	C1110.864746,520.811890 1109.469360,519.382141 1108.692749,519.376343 
	C1107.859253,519.369995 1106.302002,520.713379 1106.285645,521.493469 
	C1106.109741,529.881287 1106.176025,538.274231 1106.176025,546.942444 
	C1111.893555,546.942444 1116.868408,547.122375 1121.811768,546.806763 
	C1122.945190,546.734436 1123.969849,544.956970 1125.044556,543.964233 
	C1124.736572,543.500854 1124.428467,543.037476 1124.120483,542.574097 
	C1122.493408,542.574097 1120.866455,542.574097 1118.337646,542.566895 
M1250.945557,520.020752 
	C1248.642090,518.605103 1246.292480,517.873718 1246.201416,521.723267 
	C1246.005859,529.983765 1246.141479,538.252136 1246.141479,546.917358 
	C1251.804321,546.917358 1256.933472,547.096008 1262.030640,546.771973 
	C1263.094849,546.704285 1264.040894,544.780090 1265.041382,543.711487 
	C1264.712036,543.255920 1264.382690,542.800293 1264.053467,542.344727 
	C1259.820435,542.344727 1255.587524,542.344727 1251.079956,542.344727 
	C1251.079956,534.832520 1251.079956,527.878845 1250.945557,520.020752 
M1277.251831,543.793030 
	C1276.997314,548.157227 1279.556152,547.082214 1282.025635,546.538879 
	C1282.025635,537.359131 1282.025635,528.477356 1282.025635,519.180420 
	C1280.250488,519.338623 1278.877197,519.460999 1277.251221,519.605896 
	C1277.251221,527.672485 1277.251221,535.301880 1277.251831,543.793030 
M1055.233154,540.295349 
	C1055.233154,542.388611 1055.233154,544.481812 1055.233154,546.959167 
	C1057.266479,546.861877 1058.634521,546.796448 1059.989746,546.731567 
	C1059.989746,537.380676 1059.989746,528.479980 1059.989746,519.636047 
	C1056.554810,518.480225 1055.048828,519.289490 1055.171265,522.897156 
	C1055.357178,528.374084 1055.239746,533.861328 1055.233154,540.295349 
M1359.027466,541.959167 
	C1359.165039,543.548889 1358.958618,545.310608 1359.622070,546.637390 
	C1359.862671,547.118530 1362.448364,546.979919 1363.465698,546.336365 
	C1364.216797,545.861206 1364.628296,543.198608 1364.386597,543.074280 
	C1362.896851,542.307861 1361.178589,541.985657 1359.027466,541.959167 
M1139.601562,547.243347 
	C1140.723022,546.078613 1141.844604,544.913879 1142.966064,543.749146 
	C1141.960571,542.803284 1141.073730,541.351807 1139.910400,541.078918 
	C1139.050171,540.877197 1136.867920,542.376648 1136.946045,542.829834 
	C1137.205933,544.335632 1138.220947,545.711182 1139.601562,547.243347 
M877.700134,546.605469 
	C879.245056,546.270630 880.937561,546.195557 882.249451,545.450439 
	C882.670349,545.211365 882.516357,542.646851 881.857788,542.136230 
	C880.931030,541.417725 878.351318,541.111633 878.126160,541.525574 
	C877.409729,542.842468 877.456177,544.574219 877.700134,546.605469 
z"/>
<path fill="#051551" opacity="1.000000" stroke="none" 
	d="
M262.549042,493.598755 
	C306.073639,511.338959 350.868195,483.387878 358.347198,442.543182 
	C360.333618,431.694885 359.726135,420.331818 359.846710,409.200104 
	C359.899231,404.350739 361.231995,400.659210 364.739014,397.260406 
	C380.049774,382.422546 395.178833,367.397247 410.397003,352.463562 
	C411.063965,351.809052 411.958527,351.386444 413.664612,350.238312 
	C413.834290,352.681854 414.050598,354.357117 414.051941,356.032562 
	C414.072113,380.857727 414.102722,405.682922 414.054626,430.508026 
	C413.921143,499.366241 354.637177,556.121277 285.818604,553.310242 
	C217.310135,550.511780 164.967728,496.108185 164.840759,427.419342 
	C164.738220,371.937317 164.785980,316.455048 164.778885,260.972870 
	C164.778702,259.514801 164.915497,258.056763 165.002411,256.319092 
	C183.009918,256.319092 200.736954,256.319092 219.041977,256.319092 
	C219.041977,258.294678 219.042099,260.072876 219.041962,261.851105 
	C219.037506,317.166748 218.843018,372.483307 219.102997,427.797729 
	C219.248611,458.775696 234.422455,480.361816 262.549042,493.598755 
z"/>
<path fill="#0744E8" opacity="1.000000" stroke="none" 
	d="
M371.934631,364.687012 
	C371.934631,364.687012 371.726135,365.034302 371.175659,365.080353 
	C370.030762,365.385406 369.294647,365.500336 368.862946,365.924835 
	C361.319916,373.341919 353.802063,380.784760 346.303833,388.247223 
	C339.502319,395.016266 332.840515,401.931458 325.870972,408.521942 
	C324.080292,410.215240 321.396698,411.852997 319.063843,411.941010 
	C302.983276,412.547913 286.887634,412.789337 270.794922,412.998932 
	C268.622223,413.027252 266.438629,412.220581 263.972504,411.745117 
	C272.955994,402.473236 281.482300,393.793579 289.864655,384.977051 
	C294.925659,379.653900 299.763031,374.118103 304.700928,368.677856 
	C304.700928,368.677856 304.977264,368.998138 305.115143,368.822021 
	C305.376282,368.320038 305.499512,367.994141 305.622742,367.668274 
	C305.622742,367.668274 305.788330,367.762726 306.083984,367.774719 
	C307.589294,366.985199 308.975494,366.360809 309.982910,365.356384 
	C337.816284,337.605133 365.616302,309.820374 393.393250,282.012634 
	C394.481415,280.923279 395.287720,279.552399 396.880859,277.446075 
	C384.775208,271.174652 373.407959,265.285767 362.040710,259.396881 
	C362.032623,258.763519 362.024536,258.130157 362.016449,257.496826 
	C397.712585,247.924271 433.772888,239.726059 470.077393,230.218109 
	C470.398560,231.468658 471.033295,232.682999 470.951721,233.847137 
	C470.651184,238.135590 470.161316,242.413086 469.655060,246.684326 
	C468.487732,256.533752 467.250885,266.374908 466.076935,276.223541 
	C465.078705,284.597870 463.940063,292.961945 463.224854,301.361298 
	C462.755157,306.876953 462.927979,312.447327 462.813049,317.993195 
	C462.802124,318.456543 462.791229,318.919861 462.388489,319.925415 
	C461.467743,323.420837 460.938843,326.374054 460.409943,329.327240 
	C460.409943,329.327240 460.289215,329.259918 460.034729,329.314301 
	C459.653320,329.691833 459.526398,330.015015 459.399475,330.338196 
	C459.399506,330.338196 459.117157,330.070190 458.894745,330.213226 
	C456.616943,333.028046 454.561554,335.699829 452.506165,338.371613 
	C452.506165,338.371613 452.419952,338.367828 452.075256,338.375549 
	C446.891174,344.370605 442.051788,350.357910 437.212402,356.345245 
	C437.212402,356.345245 437.090027,356.718719 436.592834,356.867767 
	C434.340179,358.295349 432.584686,359.573853 429.939789,361.500122 
	C429.939789,358.527618 429.940155,356.738983 429.939758,354.950317 
	C429.937195,342.963898 429.951782,330.977417 429.911530,318.991119 
	C429.906006,317.345245 429.804321,315.659943 429.440125,314.062958 
	C428.585968,310.317780 426.184937,310.056152 423.608673,312.176025 
	C422.329437,313.228638 421.760437,315.144440 420.870117,316.669708 
	C420.870117,316.669708 420.860199,316.855652 420.421631,316.884338 
	C419.510712,317.058228 418.904816,317.063690 418.585449,317.368927 
	C409.520050,326.033081 400.426178,334.669342 391.493439,343.468964 
	C389.826263,345.111267 388.824310,347.428864 387.515381,349.434814 
	C387.515381,349.434814 387.418701,349.454193 387.126404,349.444702 
	C386.736816,349.748993 386.639526,350.062805 386.542267,350.376617 
	C386.542267,350.376617 386.450134,350.397858 386.090240,350.394287 
	C383.543335,352.077728 381.114899,353.535736 379.236786,355.515747 
	C377.335144,357.520569 375.977844,360.041748 374.382141,362.336761 
	C374.382111,362.336761 374.200195,361.968536 373.958710,362.133606 
	C373.123047,363.094818 372.528839,363.890930 371.934631,364.687012 
z"/>
<path fill="#071652" opacity="1.000000" stroke="none" 
	d="
M633.213135,400.936340 
	C633.217285,369.661652 633.217285,338.877686 633.217285,307.753967 
	C643.042236,307.753967 652.430054,307.753967 662.344543,307.753967 
	C662.344543,309.673279 662.345032,311.462036 662.344482,313.250793 
	C662.335327,343.566589 662.352783,373.882446 662.309570,404.198212 
	C662.261597,437.864471 638.803589,462.714081 605.210388,464.961426 
	C592.213196,465.830902 579.569458,464.622986 567.533997,459.419342 
	C546.649475,450.389618 534.177490,434.155914 533.301025,411.794800 
	C531.958069,377.534668 532.870239,343.186096 532.842590,308.875061 
	C532.842346,308.575562 533.081116,308.275848 533.317871,307.718018 
	C542.640137,307.718018 552.066040,307.718018 562.166992,307.718018 
	C562.166992,309.598083 562.166443,311.350067 562.167053,313.102081 
	C562.177490,343.084869 562.106018,373.067993 562.235535,403.050262 
	C562.294556,416.720551 566.411926,428.656464 579.789185,434.726807 
	C593.949768,441.152649 608.143250,440.682098 620.938293,431.169983 
	C630.740234,423.882996 633.365112,413.099213 633.213135,400.936340 
z"/>
<path fill="#0A45E7" opacity="1.000000" stroke="none" 
	d="
M930.359253,424.320740 
	C928.136963,439.987488 919.666626,450.709686 906.357422,457.799744 
	C879.261536,472.234161 833.007629,465.656677 810.279236,443.922760 
	C815.885254,436.239258 821.534607,428.496399 826.461914,421.743134 
	C835.816650,426.655182 844.308960,431.938110 853.433838,435.677582 
	C862.850952,439.536865 873.073608,439.555206 882.953918,437.040863 
	C886.846558,436.050201 890.827576,434.047546 893.902710,431.472168 
	C901.512939,425.098694 901.300354,413.478394 893.327026,407.550507 
	C889.003723,404.336304 883.806030,402.122803 878.742249,400.114868 
	C866.525757,395.270691 853.826355,391.526184 841.928711,386.025238 
	C825.760742,378.549927 816.725464,365.528229 817.123230,347.215057 
	C817.520935,328.910095 826.907349,316.070618 842.992004,308.177826 
	C860.429932,299.621002 878.692383,299.497711 897.119446,304.470734 
	C910.895264,308.188538 920.443970,313.234680 927.369141,320.041809 
	C921.847839,327.195648 916.287292,334.400269 911.543762,340.546356 
	C902.327393,336.682373 893.927368,332.237335 884.988159,329.668732 
	C875.781738,327.023438 866.180725,327.362457 857.259277,332.087097 
	C851.459595,335.158508 848.113342,339.708710 848.123962,346.416809 
	C848.134460,353.049744 851.667236,357.681305 857.447693,359.986389 
	C867.797302,364.113495 878.364807,367.711060 888.915771,371.311340 
	C899.387329,374.884552 909.585388,378.901031 917.827637,386.619354 
	C928.676270,396.778290 932.160828,409.455902 930.359253,424.320740 
z"/>
<path fill="#081853" opacity="1.000000" stroke="none" 
	d="
M694.998291,356.286865 
	C699.630798,356.284973 703.768799,356.284973 708.471802,356.284973 
	C708.471802,361.879883 708.471802,367.111084 708.471802,373.255035 
	C711.949829,369.521851 714.431030,366.228088 717.513611,363.654602 
	C734.396973,349.559937 758.957092,350.608124 777.051208,366.068695 
	C805.366394,390.262665 801.623901,443.716003 764.886108,460.598755 
	C746.827454,468.897552 725.616211,465.048706 712.178894,450.592072 
	C711.333435,449.682495 710.506592,448.755585 708.702148,446.771179 
	C708.702148,464.989624 708.702148,481.841736 708.702148,498.920563 
	C699.292908,498.920563 690.524292,498.920563 681.411865,498.920563 
	C681.411865,451.552856 681.411865,404.325165 681.411865,356.288727 
	C685.663513,356.288727 690.083618,356.288727 694.998291,356.286865 
M755.052917,434.660126 
	C756.746948,433.062531 758.581543,431.588470 760.111511,429.846771 
	C768.299316,420.526154 769.798096,405.400391 763.730652,394.260986 
	C758.176575,384.063934 746.139954,377.961853 734.752686,379.570251 
	C721.567993,381.432495 712.663452,389.216919 709.365356,401.764099 
	C706.134216,414.056213 710.406677,427.130615 720.052185,434.467316 
	C729.373047,441.557037 742.963928,441.789337 755.052917,434.660126 
z"/>
<path fill="#0C47E7" opacity="1.000000" stroke="none" 
	d="
M1037.353760,379.360748 
	C1029.715210,387.275452 1022.325073,394.941467 1014.364746,403.198853 
	C1030.337769,422.432861 1046.223633,441.562073 1063.096558,461.879761 
	C1054.830322,461.879761 1047.822266,461.050964 1041.092285,462.065887 
	C1029.817505,463.766144 1023.018738,459.015381 1017.070618,449.956329 
	C1011.176025,440.978790 1003.791260,432.975677 996.989136,424.602844 
	C996.107727,423.517883 994.801819,422.777740 993.119202,421.412781 
	C991.907959,422.918579 991.124817,424.692657 989.773499,425.441528 
	C981.211304,430.186554 979.670410,437.682373 980.605225,446.590668 
	C981.104248,451.345642 980.693909,456.196075 980.693909,461.447937 
	C970.738525,461.447937 961.218262,461.447937 951.384155,461.447937 
	C951.384155,406.261078 951.384155,351.172974 951.384155,295.606842 
	C960.966553,295.606842 970.493469,295.606842 980.678589,295.606842 
	C980.678589,330.716980 980.678589,365.738708 980.678589,402.213257 
	C982.969360,400.047180 984.302917,398.937897 985.460632,397.668274 
	C997.132141,384.867493 1008.757996,372.024994 1020.454041,359.246674 
	C1021.523071,358.078674 1022.972961,356.455139 1024.273560,356.429321 
	C1035.516479,356.206146 1046.765625,356.300903 1059.355225,356.300903 
	C1051.504272,364.533691 1044.553223,371.822845 1037.353760,379.360748 
z"/>
<path fill="#0B46E9" opacity="1.000000" stroke="none" 
	d="
M1228.581909,412.000031 
	C1228.580811,428.769287 1228.580811,445.038513 1228.580811,461.610413 
	C1218.540283,461.610413 1209.134644,461.610413 1199.347900,461.610413 
	C1199.347900,406.309082 1199.347900,351.124329 1199.347900,295.534729 
	C1208.953247,295.534729 1218.485962,295.534729 1228.583008,295.534729 
	C1228.583008,334.346039 1228.583008,372.923035 1228.581909,412.000031 
z"/>
<path fill="#0945E9" opacity="1.000000" stroke="none" 
	d="
M1282.915771,397.548767 
	C1282.903809,397.815063 1282.891846,398.081360 1282.368652,398.790894 
	C1281.248779,401.381287 1280.132324,403.523621 1280.112183,405.676270 
	C1279.958130,422.152191 1279.885620,438.631805 1280.104370,455.106110 
	C1280.158569,459.175751 1278.812256,460.291199 1274.963501,460.106934 
	C1269.151245,459.828735 1263.314941,459.942047 1257.491943,460.049713 
	C1254.953491,460.096619 1253.880127,459.211639 1253.921875,456.596222 
	C1254.024536,450.172943 1253.956299,443.746948 1253.955322,437.322021 
	C1253.952026,412.689301 1254.060547,388.055603 1253.841553,363.424805 
	C1253.801758,358.953796 1255.117676,357.552856 1259.485718,357.893219 
	C1264.118042,358.254120 1268.820679,358.251770 1273.454102,357.900177 
	C1277.767822,357.572815 1279.398682,358.840942 1279.155518,363.391266 
	C1278.952881,367.183502 1279.870361,371.035583 1280.291748,374.861176 
	C1280.813354,374.963074 1281.334961,375.064941 1281.856567,375.166809 
	C1282.672241,373.895721 1283.495972,372.629669 1284.302490,371.352722 
	C1291.853516,359.398712 1299.395630,353.668579 1314.625366,355.148315 
	C1316.503296,355.330780 1319.680908,357.104248 1319.765259,358.314178 
	C1320.257446,365.371765 1320.006470,372.481201 1320.006470,379.431732 
	C1316.513062,379.972626 1313.792236,380.393890 1311.071411,380.815155 
	C1309.951660,380.862152 1308.831787,380.909149 1307.020142,380.623505 
	C1300.868652,379.849518 1295.913818,380.867645 1292.108154,385.208801 
	C1292.108154,385.208801 1292.087036,385.078613 1291.779419,385.086182 
	C1290.313843,386.399689 1289.155884,387.705627 1287.997925,389.011536 
	C1287.997925,389.011536 1287.999023,388.999146 1287.648682,389.026337 
	C1285.837524,391.885284 1284.376587,394.717010 1282.915771,397.548767 
z"/>
<path fill="#0B46E6" opacity="1.000000" stroke="none" 
	d="
M1109.900391,379.000000 
	C1109.900024,406.636719 1109.900024,433.773438 1109.900024,461.402893 
	C1100.135254,461.402893 1090.750488,461.402893 1080.877075,461.402893 
	C1080.877075,426.719971 1080.877075,391.865326 1080.877075,356.641724 
	C1090.383667,356.641724 1099.769287,356.641724 1109.900757,356.641724 
	C1109.900757,363.982391 1109.900757,371.241180 1109.900391,379.000000 
z"/>
<path fill="#0E1C55" opacity="1.000000" stroke="none" 
	d="
M1432.389893,456.755615 
	C1432.260376,445.637451 1432.282104,434.987854 1431.926758,424.350861 
	C1431.764771,419.501312 1428.872192,416.281433 1424.069702,415.280701 
	C1419.175781,414.260925 1414.408936,415.026703 1411.792114,419.640900 
	C1410.149536,422.537262 1409.256958,426.181122 1409.106567,429.537903 
	C1408.734741,437.842377 1408.983154,446.174683 1408.982422,454.495789 
	C1408.982300,456.465912 1408.982422,458.436005 1408.982422,460.771240 
	C1403.870605,460.771240 1399.134766,460.771240 1394.051392,460.771240 
	C1394.051392,441.642303 1394.051392,422.453064 1394.051392,402.974121 
	C1398.868164,402.974121 1403.618286,402.974121 1408.600830,402.974121 
	C1408.749268,405.268799 1408.892090,407.476257 1409.090454,410.543945 
	C1415.573975,401.927246 1423.657715,399.842133 1432.968994,402.101593 
	C1441.392334,404.145599 1447.207520,410.756592 1447.577515,420.157227 
	C1448.105835,433.580444 1447.711914,447.039948 1447.711914,461.124237 
	C1443.533691,461.124237 1439.586792,460.929016 1435.669312,461.184692 
	C1432.411377,461.397278 1432.116333,459.675354 1432.389893,456.755615 
z"/>
<path fill="#0C48E5" opacity="1.000000" stroke="none" 
	d="
M1079.730957,334.167938 
	C1074.831177,326.561462 1074.635986,318.994110 1079.445312,311.887878 
	C1084.054565,305.077148 1091.059814,302.531311 1099.083252,304.096039 
	C1107.145630,305.668304 1112.236816,310.757080 1114.181030,318.836700 
	C1115.901245,325.985474 1112.775879,333.843536 1106.562500,337.976410 
	C1099.306152,342.802979 1090.092896,342.638123 1083.244385,337.491821 
	C1082.059082,336.601013 1081.053345,335.471191 1079.730957,334.167938 
z"/>
<path fill="#101D55" opacity="1.000000" stroke="none" 
	d="
M1365.027710,427.000000 
	C1365.032837,418.867615 1365.032837,411.235199 1365.032837,403.167938 
	C1370.170898,403.167938 1375.026367,403.167938 1380.318848,403.167938 
	C1380.318848,422.210907 1380.318848,441.372192 1380.318848,460.826752 
	C1375.351562,460.826752 1370.462524,460.826752 1365.022583,460.826752 
	C1365.022583,449.650330 1365.022583,438.575165 1365.027710,427.000000 
z"/>
<path fill="#3964D0" opacity="1.000000" stroke="none" 
	d="
M462.985657,317.636688 
	C462.927979,312.447327 462.755157,306.876953 463.224854,301.361298 
	C463.940063,292.961945 465.078705,284.597870 466.076935,276.223541 
	C467.250885,266.374908 468.487732,256.533752 469.655060,246.684326 
	C470.161316,242.413086 470.651184,238.135590 470.951721,233.847137 
	C471.033295,232.682999 470.398560,231.468658 470.077393,230.218109 
	C433.772888,239.726059 397.712585,247.924271 362.016449,257.496826 
	C362.024536,258.130157 362.032623,258.763519 362.040710,259.396881 
	C373.407959,265.285767 384.775208,271.174652 396.880859,277.446075 
	C395.287720,279.552399 394.481415,280.923279 393.393250,282.012634 
	C365.616302,309.820374 337.816284,337.605133 309.982910,365.356384 
	C308.975494,366.360809 307.589294,366.985199 306.023987,367.700653 
	C307.811096,365.322327 309.886993,362.963013 312.106873,360.748047 
	C338.261993,334.650452 364.440491,308.576324 390.604187,282.487305 
	C391.860809,281.234253 393.036743,279.900360 394.823883,277.991364 
	C384.441040,272.783691 374.620026,267.953583 364.912933,262.904510 
	C363.072174,261.947083 361.683105,260.121277 360.085602,258.696136 
	C361.963318,257.282074 363.646637,255.108078 365.748535,254.570389 
	C389.118011,248.592438 412.554108,242.875275 435.968109,237.071045 
	C446.624786,234.429306 457.309662,231.888733 467.906311,229.023331 
	C472.406860,227.806396 473.137878,229.438461 472.673950,233.444122 
	C469.438202,261.382080 466.316467,289.333252 462.985657,317.636688 
z"/>
<path fill="#2953B7" opacity="1.000000" stroke="none" 
	d="
M1311.412720,380.980011 
	C1313.792236,380.393890 1316.513062,379.972626 1320.006470,379.431732 
	C1320.006470,372.481201 1320.257446,365.371765 1319.765259,358.314178 
	C1319.680908,357.104248 1316.503296,355.330780 1314.625366,355.148315 
	C1299.395630,353.668579 1291.853516,359.398712 1284.302490,371.352722 
	C1283.495972,372.629669 1282.672241,373.895721 1281.856567,375.166809 
	C1281.334961,375.064941 1280.813354,374.963074 1280.291748,374.861176 
	C1279.870361,371.035583 1278.952881,367.183502 1279.155518,363.391266 
	C1279.398682,358.840942 1277.767822,357.572815 1273.454102,357.900177 
	C1268.820679,358.251770 1264.118042,358.254120 1259.485718,357.893219 
	C1255.117676,357.552856 1253.801758,358.953796 1253.841553,363.424805 
	C1254.060547,388.055603 1253.952026,412.689301 1253.955322,437.322021 
	C1253.956299,443.746948 1254.024536,450.172943 1253.921875,456.596222 
	C1253.880127,459.211639 1254.953491,460.096619 1257.491943,460.049713 
	C1263.314941,459.942047 1269.151245,459.828735 1274.963501,460.106934 
	C1278.812256,460.291199 1280.158569,459.175751 1280.104370,455.106110 
	C1279.885620,438.631805 1279.958130,422.152191 1280.112183,405.676270 
	C1280.132324,403.523621 1281.248779,401.381287 1282.196045,399.151581 
	C1281.928589,419.828735 1281.322266,440.588470 1280.706909,461.660095 
	C1271.369873,461.660095 1261.940552,461.660095 1252.111450,461.660095 
	C1252.111450,426.830872 1252.111450,391.959595 1252.111450,356.643677 
	C1261.363037,356.643677 1270.583374,356.643677 1280.675537,356.643677 
	C1280.675537,361.537079 1280.675537,366.690430 1280.675537,371.843781 
	C1281.087524,371.915710 1281.499512,371.987610 1281.911377,372.059509 
	C1282.577881,371.055542 1283.296875,370.082306 1283.902710,369.042938 
	C1291.120117,356.658447 1303.976685,350.935974 1317.955933,354.082336 
	C1319.338013,354.393463 1321.557739,355.683838 1321.586670,356.577728 
	C1321.863037,365.160797 1321.752075,373.756348 1321.752075,382.727905 
	C1317.940918,382.124451 1314.847412,381.634674 1311.412720,380.980011 
z"/>
<path fill="#1041C2" opacity="1.000000" stroke="none" 
	d="
M1145.947144,461.856598 
	C1145.524536,461.879974 1145.101807,461.903320 1144.208130,461.705383 
	C1143.295044,461.254272 1142.853027,461.024445 1142.411011,460.794617 
	C1142.372070,427.509186 1142.307617,394.223755 1142.303711,360.938354 
	C1142.301392,339.967133 1142.390015,318.995911 1142.631958,297.396271 
	C1142.953857,296.307159 1143.081665,295.846497 1143.209473,295.385803 
	C1152.314087,295.363068 1161.418701,295.340363 1170.821777,295.793335 
	C1171.289185,296.549133 1171.457886,296.829254 1171.626709,297.109344 
	C1171.602783,351.583496 1171.578979,406.057648 1170.881470,460.845581 
	C1162.120850,461.391785 1154.034058,461.624207 1145.947144,461.856598 
M1169.995117,333.500000 
	C1169.988281,322.676758 1169.900024,311.852539 1170.027588,301.030853 
	C1170.062744,298.041809 1169.166748,296.846130 1166.056030,296.956818 
	C1160.734741,297.146240 1155.379150,297.293365 1150.079468,296.899170 
	C1145.379883,296.549622 1143.864990,297.923859 1143.883423,302.864807 
	C1144.067749,352.318054 1143.994995,401.772278 1143.997192,451.226227 
	C1143.997314,452.724670 1143.977295,454.225281 1144.047485,455.721100 
	C1144.188477,458.727234 1145.600830,460.161835 1148.808716,460.044983 
	C1153.797607,459.863281 1158.815430,459.729462 1163.787842,460.065582 
	C1168.542603,460.386993 1170.099609,458.792236 1170.078003,453.888214 
	C1169.903076,414.092773 1169.988892,374.296234 1169.995117,333.500000 
z"/>
<path fill="#3964D0" opacity="1.000000" stroke="none" 
	d="
M304.382446,368.788727 
	C299.763031,374.118103 294.925659,379.653900 289.864655,384.977051 
	C281.482300,393.793579 272.955994,402.473236 263.972504,411.745117 
	C266.438629,412.220581 268.622223,413.027252 270.794922,412.998932 
	C286.887634,412.789337 302.983276,412.547913 319.063843,411.941010 
	C321.396698,411.852997 324.080292,410.215240 325.870972,408.521942 
	C332.840515,401.931458 339.502319,395.016266 346.303833,388.247223 
	C353.802063,380.784760 361.319916,373.341919 368.862946,365.924835 
	C369.294647,365.500336 370.030762,365.385406 370.990540,365.162476 
	C362.605438,374.050873 353.868805,382.916870 345.099762,391.750702 
	C339.124969,397.769653 332.999878,403.643402 327.146759,409.777496 
	C323.956635,413.120789 320.461060,414.794647 315.734100,414.746460 
	C299.102325,414.576904 282.467682,414.693665 265.834106,414.701447 
	C263.736664,414.702423 261.639221,414.701569 259.541779,414.701569 
	C259.274719,414.177765 259.007629,413.653961 258.740570,413.130157 
	C273.848358,398.386627 288.956177,383.643097 304.382446,368.788727 
z"/>
<path fill="#0C1A51" opacity="1.000000" stroke="none" 
	d="
M1332.625977,461.632874 
	C1326.091309,459.063873 1323.437134,455.642700 1323.520630,450.284088 
	C1323.596924,445.381714 1326.513062,441.064392 1330.950195,439.550812 
	C1335.834229,437.884796 1340.159058,438.978210 1343.589722,442.805695 
	C1346.920288,446.521606 1347.391235,450.933441 1345.287720,455.310913 
	C1342.870972,460.340271 1338.537598,462.335297 1332.625977,461.632874 
z"/>
<path fill="#1F2654" opacity="1.000000" stroke="none" 
	d="
M720.290649,531.815308 
	C724.438293,536.514099 722.751282,544.213928 717.549500,546.219910 
	C710.127502,549.082092 702.513733,546.901978 699.096436,540.936035 
	C695.520508,534.693176 696.789001,525.993042 701.896545,521.730408 
	C707.069336,517.413330 715.190674,517.847595 721.203247,522.923462 
	C719.976257,525.498596 718.819580,526.596252 715.745789,524.521912 
	C712.302673,522.198242 708.417603,522.485291 705.180115,525.422241 
	C702.202820,528.123108 701.305420,534.078003 703.230469,537.983215 
	C705.172058,541.921875 708.577820,543.237366 712.750244,542.817749 
	C716.562256,542.434387 718.566833,540.656311 717.562439,537.472778 
	C715.013550,536.016357 711.417908,534.707703 711.527039,533.898621 
	C712.082520,529.778748 715.706970,532.618835 717.895630,531.836426 
	C718.485291,531.625671 719.213806,531.803467 720.290649,531.815308 
z"/>
<path fill="#1F2857" opacity="1.000000" stroke="none" 
	d="
M806.919556,522.596008 
	C807.677979,521.169189 808.388184,519.384644 809.204773,519.334595 
	C812.836365,519.112000 816.570923,518.960876 820.134094,519.569641 
	C827.426208,520.815308 831.111938,526.545044 830.456543,534.775879 
	C829.895508,541.821594 825.313660,546.454529 818.256409,546.852478 
	C814.784668,547.048279 811.292847,546.886475 806.920410,546.886475 
	C806.920410,538.809387 806.920410,530.923035 806.919556,522.596008 
M824.629639,528.385132 
	C821.962952,522.841614 817.200989,523.364746 812.374023,523.814819 
	C812.374023,530.208252 812.374023,536.266663 812.374023,542.279663 
	C823.007324,543.229248 826.338806,539.632202 824.629639,528.385132 
z"/>
<path fill="#212956" opacity="1.000000" stroke="none" 
	d="
M737.559387,519.304810 
	C740.658142,519.164673 743.316833,519.168884 745.974426,519.117920 
	C750.680054,519.027649 755.182861,519.572937 757.057922,524.742737 
	C758.945251,529.946472 756.691528,533.744690 752.028687,536.480408 
	C754.199524,539.762939 756.273438,542.898987 758.465088,546.213135 
	C754.244934,548.069580 752.404602,546.169556 750.538391,543.150391 
	C748.661133,540.113281 747.745422,535.005920 741.625305,537.521606 
	C741.625305,540.299072 741.625305,543.227722 741.625305,546.598511 
	C739.721985,546.598511 738.223083,546.598511 735.846252,546.598511 
	C736.276367,537.414185 736.697632,528.419189 737.559387,519.304810 
M741.352356,525.909668 
	C741.352356,527.997131 741.352356,530.084534 741.352356,532.382690 
	C744.450867,532.382690 746.974609,532.764465 749.288391,532.232605 
	C750.575134,531.936829 752.125244,530.261719 752.433411,528.945312 
	C752.740112,527.634888 752.073364,525.176636 751.079041,524.652283 
	C747.951782,523.003113 744.462830,521.906982 741.352356,525.909668 
z"/>
<path fill="#212956" opacity="1.000000" stroke="none" 
	d="
M843.845764,539.821533 
	C843.891174,533.016663 843.938538,526.687927 843.999939,520.359314 
	C844.001282,520.215881 844.161682,520.073975 844.752747,519.095886 
	C849.977905,519.095886 855.741638,518.966187 861.485718,519.243713 
	C862.293945,519.282776 863.006104,521.312744 864.396179,523.349182 
	C858.615295,523.349182 854.192200,523.349182 849.392090,523.349182 
	C849.392090,525.804993 849.392090,527.847900 849.392090,530.596130 
	C852.489685,530.596130 855.607910,530.406372 858.679932,530.700012 
	C859.740601,530.801453 860.686218,532.105774 861.684448,532.860535 
	C860.640137,533.565186 859.644226,534.771301 858.542175,534.877686 
	C855.596863,535.162170 852.605957,534.974548 849.339966,534.974548 
	C849.339966,537.457336 849.339966,539.575562 849.339966,542.290222 
	C853.744080,542.290222 858.315369,542.290222 862.886719,542.290222 
	C863.229004,542.843262 863.571350,543.396362 863.913696,543.949402 
	C862.769958,544.946472 861.673279,546.733093 860.474426,546.804443 
	C855.180603,547.119446 849.857361,546.940613 843.849426,546.940613 
	C843.849426,544.494141 843.849426,542.395935 843.845764,539.821533 
z"/>
<path fill="#212956" opacity="1.000000" stroke="none" 
	d="
M634.118042,546.937134 
	C629.185486,545.505249 626.729065,542.308044 626.542603,537.711914 
	C626.300842,531.754333 626.483521,525.779602 626.483521,519.470215 
	C628.166992,519.470215 629.551514,519.470215 631.076050,519.470215 
	C631.207092,520.239136 631.405518,520.875305 631.409912,521.512878 
	C631.444275,526.509705 631.298584,531.512329 631.494568,536.501953 
	C631.656738,540.630554 633.937012,543.000854 638.221436,542.848694 
	C642.429749,542.699280 644.623718,540.274963 644.715149,536.157227 
	C644.836670,530.687378 644.745117,525.212769 644.745117,519.868042 
	C648.484070,518.426575 649.743958,519.540466 649.565430,523.049866 
	C649.388123,526.537415 649.642639,530.044678 649.614258,533.542542 
	C649.522705,544.831848 645.873413,548.066650 634.118042,546.937134 
z"/>
<path fill="#1F2654" opacity="1.000000" stroke="none" 
	d="
M919.419373,531.907349 
	C919.497864,534.048279 919.417297,535.733521 919.675415,537.365295 
	C920.307251,541.359497 922.957520,542.975708 926.778198,542.811584 
	C930.544250,542.649780 932.679626,540.466797 932.804688,536.803833 
	C932.997070,531.166870 932.855225,525.518494 932.855225,519.603210 
	C934.502380,519.450012 935.749878,519.333984 936.809570,519.235413 
	C937.242432,519.742676 937.640198,519.991882 937.638855,520.239075 
	C937.605835,526.386414 937.972656,532.579468 937.340210,538.667969 
	C936.691040,544.917664 932.229553,547.636475 924.958801,547.253296 
	C918.981262,546.938232 915.159546,543.594421 914.837769,537.660522 
	C914.514771,531.704651 914.766785,525.717651 914.766785,519.786133 
	C918.308472,518.416931 919.710632,519.357056 919.464600,522.933167 
	C919.270569,525.752380 919.418396,528.595093 919.419373,531.907349 
z"/>
<path fill="#1F2654" opacity="1.000000" stroke="none" 
	d="
M1188.282227,547.212280 
	C1177.686157,547.321411 1174.337524,544.095337 1174.237061,534.058105 
	C1174.200562,530.403687 1174.411865,526.738159 1174.194702,523.096558 
	C1173.988281,519.634766 1175.288086,518.514709 1179.269653,519.711731 
	C1179.269653,524.593018 1179.217407,529.669189 1179.283813,534.743835 
	C1179.357178,540.334167 1181.415405,542.835327 1185.810669,542.881348 
	C1190.435791,542.929749 1192.545654,540.334656 1192.570801,534.503357 
	C1192.592163,529.554871 1192.575073,524.606323 1192.575073,519.408752 
	C1194.248169,519.408752 1195.509766,519.408752 1196.843750,519.408752 
	C1197.049438,519.890381 1197.393066,520.324585 1197.397827,520.762512 
	C1197.453369,525.910950 1197.612427,531.065063 1197.437866,536.207275 
	C1197.217407,542.704956 1195.049683,545.244080 1188.282227,547.212280 
z"/>
<path fill="#212956" opacity="1.000000" stroke="none" 
	d="
M1042.189453,546.807983 
	C1038.643799,547.606323 1036.558472,546.349976 1034.815796,543.612610 
	C1032.964478,540.704712 1030.604248,538.120972 1028.466309,535.395630 
	C1027.898193,535.354553 1027.329956,535.313538 1026.761841,535.272461 
	C1025.976807,538.819153 1025.191650,542.365845 1024.268799,546.535217 
	C1023.532654,546.625793 1022.158752,546.794922 1020.355713,547.016846 
	C1020.355713,537.751404 1020.355713,528.865845 1020.355713,519.519409 
	C1021.628418,519.397888 1023.002258,519.266663 1024.830933,519.091980 
	C1025.072266,522.766357 1025.290527,526.088928 1025.567627,530.308899 
	C1030.127319,526.142761 1033.856934,522.559082 1037.826538,519.264465 
	C1038.573975,518.643982 1040.277710,519.175598 1042.603027,519.175598 
	C1038.563843,523.685669 1035.189575,527.453430 1031.894653,531.132690 
	C1035.546997,536.465637 1039.048950,541.578918 1042.189453,546.807983 
z"/>
<path fill="#2D57CD" opacity="1.000000" stroke="none" 
	d="
M1386.096191,532.061340 
	C1387.312500,531.237610 1388.475708,530.466736 1389.642334,530.461426 
	C1407.746948,530.378723 1425.852295,530.424438 1443.957031,530.361572 
	C1447.145508,530.350525 1448.844727,531.164062 1447.233032,535.146179 
	C1436.596924,535.146179 1425.827271,535.143738 1415.057739,535.146912 
	C1406.752930,535.149353 1398.447998,535.177673 1390.143188,535.150818 
	C1388.254028,535.144714 1385.836060,535.763489 1386.096191,532.061340 
z"/>
<path fill="#1F2654" opacity="1.000000" stroke="none" 
	d="
M1000.695923,519.252808 
	C1002.609680,520.247253 1004.166138,521.123474 1005.986755,522.148438 
	C1005.023376,523.573242 1004.316589,524.618591 1003.863586,525.288574 
	C1000.857117,524.469910 998.229553,523.259216 995.587769,523.227417 
	C994.086731,523.209290 992.562439,525.120483 991.048584,526.162842 
	C992.202332,527.389771 993.145996,529.036987 994.559753,529.743408 
	C996.602173,530.764038 999.034973,530.967041 1001.211914,531.763184 
	C1004.792725,533.072754 1007.213745,535.444214 1006.891174,539.573792 
	C1006.558655,543.831604 1003.840271,546.163025 999.909424,546.944275 
	C994.641296,547.991272 989.656616,547.331665 985.293640,543.368530 
	C986.433350,540.593506 987.789124,539.198547 990.715454,541.482971 
	C991.588928,542.164795 992.831787,542.577698 993.950867,542.700928 
	C996.938721,543.029602 1000.580200,543.498840 1001.332031,539.792175 
	C1001.560730,538.664429 998.081787,536.587219 996.082275,535.279175 
	C994.883118,534.494751 993.226685,534.445984 991.835083,533.911804 
	C988.290588,532.551147 985.715454,530.294312 986.148743,526.135010 
	C986.590271,521.896790 989.467224,519.673584 993.402100,519.044983 
	C995.652100,518.685547 998.022461,519.079651 1000.695923,519.252808 
z"/>
<path fill="#212956" opacity="1.000000" stroke="none" 
	d="
M793.894897,542.921997 
	C794.317810,544.352295 794.616821,545.427612 794.929932,546.553589 
	C791.653503,547.707520 789.434753,547.288940 788.746582,543.743164 
	C788.157959,540.710083 785.975281,540.262573 783.487671,540.692017 
	C780.426270,541.220642 776.118469,538.654480 774.867249,543.944580 
	C774.104675,547.168457 772.041931,547.607544 768.528381,546.535950 
	C771.924011,537.852417 775.192688,529.251038 778.743591,520.767822 
	C779.121460,519.865173 781.226990,519.112854 782.391418,519.277527 
	C783.497742,519.434021 784.877380,520.690247 785.350098,521.798584 
	C788.280396,528.668823 790.988892,535.633667 793.894897,542.921997 
M778.263428,536.201294 
	C780.771912,536.201294 783.280396,536.201294 786.360413,536.201294 
	C784.701050,532.236145 783.367432,529.049438 781.551636,524.710510 
	C780.018982,529.215881 778.952026,532.352234 778.263428,536.201294 
z"/>
<path fill="#212956" opacity="1.000000" stroke="none" 
	d="
M952.317261,527.109131 
	C952.312683,524.344727 952.312683,522.062561 952.312683,519.208252 
	C957.065674,519.208252 961.351013,518.902100 965.573730,519.285461 
	C970.899902,519.768982 974.086670,523.628601 973.960327,528.653442 
	C973.842102,533.359985 970.540710,536.697815 965.268799,537.182251 
	C962.969543,537.393616 960.634705,537.217773 957.661926,537.217773 
	C957.502075,540.508301 957.354187,543.551758 957.199768,546.729126 
	C955.508545,546.729126 954.122864,546.729126 952.321777,546.729126 
	C952.321777,540.142334 952.321777,533.866821 952.317261,527.109131 
M957.243835,529.424072 
	C957.129944,535.730225 961.871033,532.633423 964.399902,532.729004 
	C967.834229,532.858704 969.392090,530.279968 968.718384,526.938171 
	C968.016968,523.458984 963.989563,522.528687 957.248535,524.222656 
	C957.248535,525.606384 957.248535,527.078369 957.243835,529.424072 
z"/>
<path fill="#1F2857" opacity="1.000000" stroke="none" 
	d="
M1231.880859,523.201782 
	C1234.393677,527.937378 1234.142456,532.527283 1229.924927,535.011414 
	C1226.439697,537.064270 1221.855713,537.251831 1217.365479,538.363098 
	C1217.224121,540.717041 1217.057373,543.493713 1216.871094,546.595154 
	C1215.337158,546.595154 1213.940063,546.595154 1212.201172,546.595154 
	C1212.201172,537.572998 1212.201172,528.674133 1212.201172,519.223694 
	C1219.034058,519.799011 1226.077637,516.891418 1231.880859,523.201782 
M1226.895752,524.729004 
	C1223.786499,524.137451 1220.677368,523.545898 1216.965210,522.839600 
	C1216.965210,525.450745 1216.926025,526.916992 1216.976318,528.380249 
	C1217.025635,529.814514 1217.166260,531.245605 1217.261108,532.595276 
	C1227.164917,533.711853 1229.317749,532.099609 1226.895752,524.729004 
z"/>
<path fill="#1F2857" opacity="1.000000" stroke="none" 
	d="
M676.229126,537.291260 
	C673.832397,537.314575 671.871460,537.314575 669.541931,537.314575 
	C669.388245,539.191040 669.225464,540.605042 669.169250,542.023193 
	C669.111084,543.488892 669.156311,544.958679 669.156311,546.743958 
	C667.407532,546.743958 666.021912,546.743958 664.329102,546.743958 
	C664.329102,537.738953 664.329102,528.862854 664.329102,519.157288 
	C668.027039,519.157288 671.770996,519.043457 675.505493,519.182922 
	C681.664368,519.412842 685.071167,522.337463 685.428772,527.468140 
	C685.825378,533.158447 683.284546,535.999573 676.229126,537.291260 
M675.113342,523.385742 
	C673.191101,523.476074 671.268799,523.566345 669.432739,523.652588 
	C669.432739,527.059021 669.432739,529.926392 669.432739,532.749268 
	C677.310669,533.411926 679.775818,532.666138 680.335205,529.285889 
	C680.883545,525.972412 679.416931,523.885376 675.113342,523.385742 
z"/>
<path fill="#101D55" opacity="1.000000" stroke="none" 
	d="
M1378.114502,393.266174 
	C1371.566895,395.546478 1366.231812,393.856750 1364.145996,389.126526 
	C1362.175903,384.658478 1363.832275,379.385010 1367.976074,376.932159 
	C1372.239990,374.408234 1377.996460,375.588898 1380.948242,379.593048 
	C1384.231812,384.047333 1383.355347,388.769226 1378.114502,393.266174 
z"/>
<path fill="#214DCA" opacity="1.000000" stroke="none" 
	d="
M591.334229,535.034363 
	C571.756165,535.051697 552.606689,535.051697 533.306274,535.051697 
	C531.799133,531.881470 532.502075,530.455505 536.156616,530.467957 
	C554.144897,530.529053 572.133728,530.467957 590.121826,530.557312 
	C591.204651,530.562683 592.282837,531.496887 593.363220,531.998901 
	C592.829773,533.004944 592.296265,534.010986 591.334229,535.034363 
z"/>
<path fill="#252F5A" opacity="1.000000" stroke="none" 
	d="
M1297.277588,525.175781 
	C1297.269653,523.069214 1297.269653,521.438721 1297.269653,519.078613 
	C1303.205200,519.078613 1308.778687,518.980042 1314.340332,519.193054 
	C1315.107544,519.222412 1316.103760,520.707031 1316.407959,521.697754 
	C1316.527832,522.088623 1315.073730,523.496521 1314.285767,523.540894 
	C1310.659058,523.744812 1307.014404,523.630798 1302.946533,523.630798 
	C1302.946533,526.168335 1302.946533,528.511230 1302.946533,531.524048 
	C1306.132812,531.524048 1309.248779,531.364685 1312.329956,531.621277 
	C1313.252075,531.698120 1314.077515,532.937256 1314.947266,533.643860 
	C1314.119141,534.385864 1313.339111,535.692566 1312.454224,535.767883 
	C1309.358643,536.031311 1306.226929,535.869934 1302.699463,535.869934 
	C1302.699463,539.691711 1302.699463,542.954163 1302.699463,546.611511 
	C1300.937378,546.816528 1299.549683,546.977966 1297.285400,547.241394 
	C1297.285400,539.772095 1297.285400,532.711975 1297.277588,525.175781 
z"/>
<path fill="#252F5A" opacity="1.000000" stroke="none" 
	d="
M1329.733032,519.143677 
	C1335.628784,519.117126 1341.107788,518.946472 1346.566284,519.204895 
	C1347.944946,519.270142 1349.258789,520.705811 1350.602539,521.511658 
	C1350.354858,522.062134 1350.107178,522.612610 1349.859497,523.163025 
	C1347.148315,523.405212 1344.437134,523.647400 1341.297363,523.927856 
	C1341.297363,531.580078 1341.297363,538.977173 1341.297363,546.626038 
	C1339.604248,546.740784 1338.351318,546.825684 1336.425049,546.956238 
	C1336.425049,539.150940 1336.425049,531.629883 1336.425049,523.766357 
	C1333.230957,523.565063 1330.661133,523.403076 1326.953857,523.169434 
	C1327.977539,521.425781 1328.643066,520.292236 1329.733032,519.143677 
z"/>
<path fill="#252F5A" opacity="1.000000" stroke="none" 
	d="
M1080.170288,532.041870 
	C1080.172241,535.653809 1080.172241,538.769958 1080.172241,542.472778 
	C1084.779907,542.472778 1089.005127,542.472778 1093.070801,542.472778 
	C1094.252930,545.776428 1093.499634,547.052002 1090.418823,546.971313 
	C1085.624756,546.845825 1080.825073,546.938110 1075.560303,546.938110 
	C1075.560303,537.712219 1075.560303,528.729370 1075.560303,519.440063 
	C1076.976929,519.440063 1078.361450,519.440063 1080.168335,519.440063 
	C1080.168335,523.639771 1080.168335,527.592957 1080.170288,532.041870 
z"/>
<path fill="#212956" opacity="1.000000" stroke="none" 
	d="
M1118.788574,542.570496 
	C1120.866455,542.574097 1122.493408,542.574097 1124.120483,542.574097 
	C1124.428467,543.037476 1124.736572,543.500854 1125.044556,543.964233 
	C1123.969849,544.956970 1122.945190,546.734436 1121.811768,546.806763 
	C1116.868408,547.122375 1111.893555,546.942444 1106.176025,546.942444 
	C1106.176025,538.274231 1106.109741,529.881287 1106.285645,521.493469 
	C1106.302002,520.713379 1107.859253,519.369995 1108.692749,519.376343 
	C1109.469360,519.382141 1110.864746,520.811890 1110.902710,521.663208 
	C1111.131836,526.800903 1111.051025,531.952454 1111.070190,537.099365 
	C1111.076172,538.713928 1111.071045,540.328552 1111.071045,542.566895 
	C1113.799072,542.566895 1116.068359,542.566895 1118.788574,542.570496 
z"/>
<path fill="#212956" opacity="1.000000" stroke="none" 
	d="
M1251.012695,520.472900 
	C1251.079956,527.878845 1251.079956,534.832520 1251.079956,542.344727 
	C1255.587524,542.344727 1259.820435,542.344727 1264.053467,542.344727 
	C1264.382690,542.800293 1264.712036,543.255920 1265.041382,543.711487 
	C1264.040894,544.780090 1263.094849,546.704285 1262.030640,546.771973 
	C1256.933472,547.096008 1251.804321,546.917358 1246.141479,546.917358 
	C1246.141479,538.252136 1246.005859,529.983765 1246.201416,521.723267 
	C1246.292480,517.873718 1248.642090,518.605103 1251.012695,520.472900 
z"/>
<path fill="#3964D0" opacity="1.000000" stroke="none" 
	d="
M421.193604,316.546570 
	C421.760437,315.144440 422.329437,313.228638 423.608673,312.176025 
	C426.184937,310.056152 428.585968,310.317780 429.440125,314.062958 
	C429.804321,315.659943 429.906006,317.345245 429.911530,318.991119 
	C429.951782,330.977417 429.937195,342.963898 429.939758,354.950317 
	C429.940155,356.738983 429.939789,358.527618 429.939789,361.500122 
	C432.584686,359.573853 434.340179,358.295349 436.434387,356.983948 
	C434.557098,359.060638 432.060059,363.145966 430.182159,362.878845 
	C425.939056,362.275299 427.942352,357.764709 427.902405,354.919708 
	C427.727875,342.490479 427.868164,330.057098 427.828247,317.625397 
	C427.822906,315.957825 427.441925,314.291443 427.093872,311.488953 
	C424.614044,313.683167 423.065582,315.053314 421.193604,316.546570 
z"/>
<path fill="#252F5A" opacity="1.000000" stroke="none" 
	d="
M1277.251465,543.362183 
	C1277.251221,535.301880 1277.251221,527.672485 1277.251221,519.605896 
	C1278.877197,519.460999 1280.250488,519.338623 1282.025635,519.180420 
	C1282.025635,528.477356 1282.025635,537.359131 1282.025635,546.538879 
	C1279.556152,547.082214 1276.997314,548.157227 1277.251465,543.362183 
z"/>
<path fill="#212956" opacity="1.000000" stroke="none" 
	d="
M1055.242188,539.819763 
	C1055.239746,533.861328 1055.357178,528.374084 1055.171265,522.897156 
	C1055.048828,519.289490 1056.554810,518.480225 1059.989746,519.636047 
	C1059.989746,528.479980 1059.989746,537.380676 1059.989746,546.731567 
	C1058.634521,546.796448 1057.266479,546.861877 1055.233154,546.959167 
	C1055.233154,544.481812 1055.233154,542.388611 1055.242188,539.819763 
z"/>
<path fill="#3964D0" opacity="1.000000" stroke="none" 
	d="
M387.823975,349.324646 
	C388.824310,347.428864 389.826263,345.111267 391.493439,343.468964 
	C400.426178,334.669342 409.520050,326.033081 418.585449,317.368927 
	C418.904816,317.063690 419.510712,317.058228 420.328827,316.891724 
	C413.290131,324.294220 405.924469,331.736877 398.512848,339.133484 
	C395.099121,342.540283 391.595459,345.856934 387.823975,349.324646 
z"/>
<path fill="#3964D0" opacity="1.000000" stroke="none" 
	d="
M437.529510,356.229095 
	C442.051788,350.357910 446.891174,344.370605 452.081299,338.418304 
	C447.570190,344.339844 442.708405,350.226379 437.529510,356.229095 
z"/>
<path fill="#252F5A" opacity="1.000000" stroke="none" 
	d="
M1359.281982,541.737427 
	C1361.178589,541.985657 1362.896851,542.307861 1364.386597,543.074280 
	C1364.628296,543.198608 1364.216797,545.861206 1363.465698,546.336365 
	C1362.448364,546.979919 1359.862671,547.118530 1359.622070,546.637390 
	C1358.958618,545.310608 1359.165039,543.548889 1359.281982,541.737427 
z"/>
<path fill="#252F5A" opacity="1.000000" stroke="none" 
	d="
M1139.273926,547.190002 
	C1138.220947,545.711182 1137.205933,544.335632 1136.946045,542.829834 
	C1136.867920,542.376648 1139.050171,540.877197 1139.910400,541.078918 
	C1141.073730,541.351807 1141.960571,542.803284 1142.966064,543.749146 
	C1141.844604,544.913879 1140.723022,546.078613 1139.273926,547.190002 
z"/>
<path fill="#212956" opacity="1.000000" stroke="none" 
	d="
M877.453979,546.375610 
	C877.456177,544.574219 877.409729,542.842468 878.126160,541.525574 
	C878.351318,541.111633 880.931030,541.417725 881.857788,542.136230 
	C882.516357,542.646851 882.670349,545.211365 882.249451,545.450439 
	C880.937561,546.195557 879.245056,546.270630 877.453979,546.375610 
z"/>
<path fill="#3964D0" opacity="1.000000" stroke="none" 
	d="
M374.700775,362.238983 
	C375.977844,360.041748 377.335144,357.520569 379.236786,355.515747 
	C381.114899,353.535736 383.543335,352.077728 386.080688,350.440613 
	C382.627136,354.374054 378.823273,358.257629 374.700775,362.238983 
z"/>
<path fill="#2953B7" opacity="1.000000" stroke="none" 
	d="
M1292.486572,385.156036 
	C1295.913818,380.867645 1300.868652,379.849518 1306.607788,380.535675 
	C1302.213135,382.221405 1297.539062,383.662323 1292.486572,385.156036 
z"/>
<path fill="#6E8CD5" opacity="1.000000" stroke="none" 
	d="
M1146.405273,461.981750 
	C1154.034058,461.624207 1162.120850,461.391785 1170.683105,461.232056 
	C1165.846924,461.570465 1160.537109,461.881195 1155.223022,462.083496 
	C1152.440186,462.189484 1149.650146,462.105225 1146.405273,461.981750 
z"/>
<path fill="#3964D0" opacity="1.000000" stroke="none" 
	d="
M452.789917,338.222412 
	C454.561554,335.699829 456.616943,333.028046 459.021667,330.360809 
	C457.271881,332.934662 455.172760,335.503937 452.789917,338.222412 
z"/>
<path fill="#3964D0" opacity="1.000000" stroke="none" 
	d="
M460.717651,329.157196 
	C460.938843,326.374054 461.467743,323.420837 462.272705,320.255066 
	C462.040955,323.024048 461.533173,326.005615 460.717651,329.157196 
z"/>
<path fill="#2953B7" opacity="1.000000" stroke="none" 
	d="
M1283.149170,397.351501 
	C1284.376587,394.717010 1285.837524,391.885284 1287.654297,389.025604 
	C1286.467651,391.716522 1284.925171,394.435394 1283.149170,397.351501 
z"/>
<path fill="#2953B7" opacity="1.000000" stroke="none" 
	d="
M1288.298096,388.891357 
	C1289.155884,387.705627 1290.313843,386.399689 1291.828247,385.130463 
	C1290.989136,386.368500 1289.793701,387.569824 1288.298096,388.891357 
z"/>
<path fill="#3964D0" opacity="1.000000" stroke="none" 
	d="
M372.223389,364.628540 
	C372.528839,363.890930 373.123047,363.094818 374.038940,362.321869 
	C373.744507,363.086700 373.128296,363.828369 372.223389,364.628540 
z"/>
<path fill="#6E8CD5" opacity="1.000000" stroke="none" 
	d="
M1142.375732,461.115540 
	C1142.853027,461.024445 1143.295044,461.254272 1143.891113,461.686523 
	C1143.477051,461.738159 1142.908691,461.587341 1142.375732,461.115540 
z"/>
<path fill="#6E8CD5" opacity="1.000000" stroke="none" 
	d="
M1142.900757,295.417542 
	C1143.081665,295.846497 1142.953857,296.307159 1142.651245,296.935303 
	C1142.514893,296.551605 1142.553345,296.000427 1142.900757,295.417542 
z"/>
<path fill="#6E8CD5" opacity="1.000000" stroke="none" 
	d="
M1171.758545,296.859741 
	C1171.457886,296.829254 1171.289185,296.549133 1171.185669,296.021759 
	C1171.464111,296.053040 1171.677246,296.331573 1171.758545,296.859741 
z"/>
<path fill="#3964D0" opacity="1.000000" stroke="none" 
	d="
M459.638611,330.274780 
	C459.526398,330.015015 459.653320,329.691833 460.065552,329.376160 
	C460.347931,329.748016 460.190216,330.023926 459.638611,330.274780 
z"/>
<path fill="#3964D0" opacity="1.000000" stroke="none" 
	d="
M305.381226,367.743408 
	C305.499512,367.994141 305.376282,368.320038 304.970947,368.667053 
	C304.839172,368.398315 304.989471,368.108429 305.381226,367.743408 
z"/>
<path fill="#3964D0" opacity="1.000000" stroke="none" 
	d="
M386.747559,350.316040 
	C386.639526,350.062805 386.736816,349.748993 387.109741,349.491089 
	C387.361328,349.856476 387.217163,350.092651 386.747559,350.316040 
z"/>
<path fill="#F9FAFC" opacity="1.000000" stroke="none" 
	d="
M754.741577,434.857483 
	C742.963928,441.789337 729.373047,441.557037 720.052185,434.467316 
	C710.406677,427.130615 706.134216,414.056213 709.365356,401.764099 
	C712.663452,389.216919 721.567993,381.432495 734.752686,379.570251 
	C746.139954,377.961853 758.176575,384.063934 763.730652,394.260986 
	C769.798096,405.400391 768.299316,420.526154 760.111511,429.846771 
	C758.581543,431.588470 756.746948,433.062531 754.741577,434.857483 
z"/>
<path fill="#0644ED" opacity="1.000000" stroke="none" 
	d="
M1169.995117,334.000000 
	C1169.988892,374.296234 1169.903076,414.092773 1170.078003,453.888214 
	C1170.099609,458.792236 1168.542603,460.386993 1163.787842,460.065582 
	C1158.815430,459.729462 1153.797607,459.863281 1148.808716,460.044983 
	C1145.600830,460.161835 1144.188477,458.727234 1144.047485,455.721100 
	C1143.977295,454.225281 1143.997314,452.724670 1143.997192,451.226227 
	C1143.994995,401.772278 1144.067749,352.318054 1143.883423,302.864807 
	C1143.864990,297.923859 1145.379883,296.549622 1150.079468,296.899170 
	C1155.379150,297.293365 1160.734741,297.146240 1166.056030,296.956818 
	C1169.166748,296.846130 1170.062744,298.041809 1170.027588,301.030853 
	C1169.900024,311.852539 1169.988281,322.676758 1169.995117,334.000000 
z"/>
<path fill="#ECF0F7" opacity="1.000000" stroke="none" 
	d="
M824.765381,528.788696 
	C826.338806,539.632202 823.007324,543.229248 812.374023,542.279663 
	C812.374023,536.266663 812.374023,530.208252 812.374023,523.814819 
	C817.200989,523.364746 821.962952,522.841614 824.765381,528.788696 
z"/>
<path fill="#D8DCE8" opacity="1.000000" stroke="none" 
	d="
M741.363525,525.490112 
	C744.462830,521.906982 747.951782,523.003113 751.079041,524.652283 
	C752.073364,525.176636 752.740112,527.634888 752.433411,528.945312 
	C752.125244,530.261719 750.575134,531.936829 749.288391,532.232605 
	C746.974609,532.764465 744.450867,532.382690 741.352356,532.382690 
	C741.352356,530.084534 741.352356,527.997131 741.363525,525.490112 
z"/>
<path fill="#D8DCE8" opacity="1.000000" stroke="none" 
	d="
M778.074280,535.844971 
	C778.952026,532.352234 780.018982,529.215881 781.551636,524.710510 
	C783.367432,529.049438 784.701050,532.236145 786.360413,536.201294 
	C783.280396,536.201294 780.771912,536.201294 778.074280,535.844971 
z"/>
<path fill="#E3E6F0" opacity="1.000000" stroke="none" 
	d="
M957.246216,528.987183 
	C957.248535,527.078369 957.248535,525.606384 957.248535,524.222656 
	C963.989563,522.528687 968.016968,523.458984 968.718384,526.938171 
	C969.392090,530.279968 967.834229,532.858704 964.399902,532.729004 
	C961.871033,532.633423 957.129944,535.730225 957.246216,528.987183 
z"/>
<path fill="#E3E6F0" opacity="1.000000" stroke="none" 
	d="
M1227.180176,525.029968 
	C1229.317749,532.099609 1227.164917,533.711853 1217.261108,532.595276 
	C1217.166260,531.245605 1217.025635,529.814514 1216.976318,528.380249 
	C1216.926025,526.916992 1216.965210,525.450745 1216.965210,522.839600 
	C1220.677368,523.545898 1223.786499,524.137451 1227.180176,525.029968 
z"/>
<path fill="#E3E6F0" opacity="1.000000" stroke="none" 
	d="
M675.527222,523.422852 
	C679.416931,523.885376 680.883545,525.972412 680.335205,529.285889 
	C679.775818,532.666138 677.310669,533.411926 669.432739,532.749268 
	C669.432739,529.926392 669.432739,527.059021 669.432739,523.652588 
	C671.268799,523.566345 673.191101,523.476074 675.527222,523.422852 
z"/>
</svg>